<mxfile host="app.diagrams.net" modified="2021-06-01T13:16:36.195Z" agent="5.0 (Windows NT 6.1; Win64; x64) AppleWebKit/537.36 (KHTML, like Gecko) Chrome/90.0.4430.212 Safari/537.36 OPR/76.0.4017.154" etag="GyoKBCUcbBCPYiEaaxnE" version="14.7.3" type="github">
  <diagram id="bo9GnDAmApckEpk4Zuy2" name="Page-1">
    <mxGraphModel dx="2998" dy="1405" grid="1" gridSize="6" guides="1" tooltips="1" connect="1" arrows="1" fold="1" page="1" pageScale="1" pageWidth="827" pageHeight="1169" background="none" math="0" shadow="0">
      <root>
        <mxCell id="0" />
        <mxCell id="1" parent="0" />
        <mxCell id="XimZa_RJm3iDj70_DvjW-2" value="h_categories" style="swimlane;startSize=23;fillColor=#f8cecc;strokeColor=#b85450;" vertex="1" parent="1">
          <mxGeometry x="144" y="24" width="146" height="88" as="geometry" />
        </mxCell>
        <mxCell id="XimZa_RJm3iDj70_DvjW-20" value="h_categories_rk: bidint&lt;br&gt;categoreID: bigint&lt;br&gt;source_system: string&lt;br&gt;processed_dttm: datetime" style="text;html=1;align=left;verticalAlign=middle;resizable=0;points=[];autosize=1;strokeColor=none;" vertex="1" parent="XimZa_RJm3iDj70_DvjW-2">
          <mxGeometry y="22" width="156" height="66" as="geometry" />
        </mxCell>
        <mxCell id="XimZa_RJm3iDj70_DvjW-6" value="h_suppliers" style="swimlane;fillColor=#f8cecc;strokeColor=#b85450;" vertex="1" parent="1">
          <mxGeometry x="144" y="336" width="146" height="88" as="geometry" />
        </mxCell>
        <mxCell id="XimZa_RJm3iDj70_DvjW-22" value="h_suppliers_rk: bigint&lt;br&gt;supplierID: bigint&lt;br&gt;&lt;span style=&quot;&quot;&gt;source_system: string&lt;/span&gt;&lt;br style=&quot;&quot;&gt;&lt;span style=&quot;&quot;&gt;processed_dttm: datetime&lt;/span&gt;" style="text;html=1;align=left;verticalAlign=middle;resizable=0;points=[];autosize=1;strokeColor=none;" vertex="1" parent="XimZa_RJm3iDj70_DvjW-6">
          <mxGeometry y="22" width="156" height="66" as="geometry" />
        </mxCell>
        <mxCell id="XimZa_RJm3iDj70_DvjW-11" value="h_employees" style="swimlane;fillColor=#f8cecc;strokeColor=#b85450;" vertex="1" parent="1">
          <mxGeometry x="144" y="480" width="144" height="86" as="geometry" />
        </mxCell>
        <mxCell id="XimZa_RJm3iDj70_DvjW-25" value="h_employees_rk: bigint&lt;br&gt;employeeID: bigint&lt;br&gt;&lt;span style=&quot;&quot;&gt;source_system: string&lt;/span&gt;&lt;br style=&quot;&quot;&gt;&lt;span style=&quot;&quot;&gt;processed_dttm: datetime&lt;/span&gt;" style="text;html=1;align=left;verticalAlign=middle;resizable=0;points=[];autosize=1;strokeColor=none;" vertex="1" parent="XimZa_RJm3iDj70_DvjW-11">
          <mxGeometry y="20" width="156" height="66" as="geometry" />
        </mxCell>
        <mxCell id="XimZa_RJm3iDj70_DvjW-12" value="h_products" style="swimlane;fillColor=#f8cecc;strokeColor=#b85450;" vertex="1" parent="1">
          <mxGeometry x="144" y="168" width="144" height="90" as="geometry" />
        </mxCell>
        <mxCell id="XimZa_RJm3iDj70_DvjW-21" value="h_products_rk: bigint&lt;br&gt;productID: bigint&lt;br&gt;&lt;span style=&quot;&quot;&gt;source_system: string&lt;/span&gt;&lt;br style=&quot;&quot;&gt;&lt;div style=&quot;&quot;&gt;&lt;span&gt;processed_dttm: datetime&lt;/span&gt;&lt;/div&gt;" style="text;html=1;align=left;verticalAlign=middle;resizable=0;points=[];autosize=1;" vertex="1" parent="XimZa_RJm3iDj70_DvjW-12">
          <mxGeometry y="24" width="156" height="66" as="geometry" />
        </mxCell>
        <mxCell id="XimZa_RJm3iDj70_DvjW-13" value="h_customers" style="swimlane;fillColor=#f8cecc;strokeColor=#b85450;" vertex="1" parent="1">
          <mxGeometry x="152" y="912" width="154" height="96" as="geometry" />
        </mxCell>
        <mxCell id="XimZa_RJm3iDj70_DvjW-24" value="h_customers_rk: bigint&lt;br&gt;customerID: bigint&lt;br&gt;&lt;span style=&quot;&quot;&gt;source_system: string&lt;/span&gt;&lt;br style=&quot;&quot;&gt;&lt;span style=&quot;&quot;&gt;processed_dttm: datetime&lt;/span&gt;" style="text;html=1;align=left;verticalAlign=middle;resizable=0;points=[];autosize=1;strokeColor=none;" vertex="1" parent="XimZa_RJm3iDj70_DvjW-13">
          <mxGeometry y="24" width="156" height="66" as="geometry" />
        </mxCell>
        <mxCell id="XimZa_RJm3iDj70_DvjW-14" value="h_orders" style="swimlane;fillColor=#f8cecc;strokeColor=#b85450;" vertex="1" parent="1">
          <mxGeometry x="138" y="750" width="162" height="90" as="geometry" />
        </mxCell>
        <mxCell id="XimZa_RJm3iDj70_DvjW-23" value="h_orders_rk: bigint&lt;br&gt;orderID: bigint&lt;br&gt;&lt;span style=&quot;&quot;&gt;source_system: string&lt;/span&gt;&lt;br style=&quot;&quot;&gt;&lt;span style=&quot;&quot;&gt;processed_dttm: datetime&lt;/span&gt;" style="text;html=1;align=left;verticalAlign=middle;resizable=0;points=[];autosize=1;strokeColor=none;" vertex="1" parent="XimZa_RJm3iDj70_DvjW-14">
          <mxGeometry y="24" width="156" height="66" as="geometry" />
        </mxCell>
        <mxCell id="XimZa_RJm3iDj70_DvjW-15" value="h_shippers" style="swimlane;fillColor=#f8cecc;strokeColor=#b85450;" vertex="1" parent="1">
          <mxGeometry x="144" y="624" width="156" height="90" as="geometry" />
        </mxCell>
        <mxCell id="XimZa_RJm3iDj70_DvjW-26" value="h_shippers_rk: bigint&lt;br&gt;shipperID: bigint&lt;br&gt;&lt;span style=&quot;&quot;&gt;source_system: string&lt;/span&gt;&lt;br style=&quot;&quot;&gt;&lt;span style=&quot;&quot;&gt;processed_dttm: datetime&lt;/span&gt;" style="text;html=1;align=left;verticalAlign=middle;resizable=0;points=[];autosize=1;strokeColor=none;" vertex="1" parent="XimZa_RJm3iDj70_DvjW-15">
          <mxGeometry y="24" width="156" height="66" as="geometry" />
        </mxCell>
        <mxCell id="XimZa_RJm3iDj70_DvjW-16" value="h_territories" style="swimlane;startSize=18;fillColor=#f8cecc;strokeColor=#b85450;" vertex="1" parent="1">
          <mxGeometry x="168" y="1055.5" width="156" height="83" as="geometry" />
        </mxCell>
        <mxCell id="XimZa_RJm3iDj70_DvjW-27" value="h_territories_rk: bigint&lt;br&gt;territoryID: bigint&lt;br&gt;&lt;span style=&quot;&quot;&gt;source_system: string&lt;/span&gt;&lt;br style=&quot;&quot;&gt;&lt;span style=&quot;&quot;&gt;processed_dttm: datetime&lt;/span&gt;" style="text;html=1;align=left;verticalAlign=middle;resizable=0;points=[];autosize=1;strokeColor=none;" vertex="1" parent="XimZa_RJm3iDj70_DvjW-16">
          <mxGeometry y="17" width="156" height="66" as="geometry" />
        </mxCell>
        <mxCell id="XimZa_RJm3iDj70_DvjW-18" value="h_customerdemo" style="swimlane;fillColor=#f8cecc;strokeColor=#b85450;" vertex="1" parent="1">
          <mxGeometry x="165" y="1206" width="162" height="90" as="geometry" />
        </mxCell>
        <mxCell id="XimZa_RJm3iDj70_DvjW-19" value="h_region" style="swimlane;fillColor=#f8cecc;strokeColor=#b85450;swimlaneFillColor=none;" vertex="1" parent="1">
          <mxGeometry x="126" y="1357" width="144" height="89" as="geometry" />
        </mxCell>
        <mxCell id="XimZa_RJm3iDj70_DvjW-31" value="s_categories" style="swimlane;align=center;fillColor=#fff2cc;strokeColor=#d6b656;" vertex="1" parent="1">
          <mxGeometry x="-96" y="24" width="162" height="144" as="geometry" />
        </mxCell>
        <mxCell id="XimZa_RJm3iDj70_DvjW-32" value="&lt;span style=&quot;&quot;&gt;h_categories_rk: bidint&lt;br&gt;&lt;/span&gt;&lt;span style=&quot;&quot;&gt;&lt;div&gt;categoryName: nvarchar(15)&lt;/div&gt;&lt;div&gt;description: ntext&lt;/div&gt;&lt;div&gt;picture: image&lt;/div&gt;&lt;div&gt;valid_from_dttm: datetime&lt;/div&gt;&lt;div&gt;valid_to_dttm: datetime&lt;/div&gt;&lt;div&gt;source_system: string&lt;/div&gt;&lt;div&gt;processed_dttm: datetime&lt;/div&gt;&lt;/span&gt;" style="text;html=1;align=left;verticalAlign=middle;resizable=0;points=[];autosize=1;strokeColor=none;" vertex="1" parent="XimZa_RJm3iDj70_DvjW-31">
          <mxGeometry y="24" width="168" height="120" as="geometry" />
        </mxCell>
        <mxCell id="XimZa_RJm3iDj70_DvjW-33" value="s_products" style="swimlane;align=center;fillColor=#fff2cc;strokeColor=#d6b656;startSize=23;" vertex="1" parent="1">
          <mxGeometry x="-300" y="60" width="174" height="198" as="geometry" />
        </mxCell>
        <mxCell id="XimZa_RJm3iDj70_DvjW-34" value="h_products_rk: bigint&lt;br&gt;&lt;div&gt;productName: nvarchar(40)&lt;/div&gt;&lt;div&gt;quantityPerUnit: nvarchar(20)&lt;/div&gt;&lt;div&gt;unitPrice: money&lt;/div&gt;&lt;div&gt;unislnStock: smallint&lt;/div&gt;&lt;div&gt;unisOnOrder: smallint&lt;/div&gt;&lt;div&gt;reorderLevel: smallint&lt;/div&gt;&lt;div&gt;discontinued: bit&lt;/div&gt;&lt;div&gt;valid_from_dttm: datetime&lt;/div&gt;&lt;div&gt;valid_to_dttm: datetime&lt;/div&gt;&lt;div&gt;source_system: string&lt;/div&gt;&lt;div&gt;processed_dttm: datetime&lt;/div&gt;" style="text;html=1;align=left;verticalAlign=middle;resizable=0;points=[];autosize=1;strokeColor=none;" vertex="1" parent="XimZa_RJm3iDj70_DvjW-33">
          <mxGeometry y="20" width="174" height="180" as="geometry" />
        </mxCell>
        <mxCell id="XimZa_RJm3iDj70_DvjW-35" value="s_suppliers" style="swimlane;align=center;fillColor=#fff2cc;strokeColor=#d6b656;" vertex="1" parent="1">
          <mxGeometry x="-96" y="240" width="168" height="258" as="geometry" />
        </mxCell>
        <mxCell id="XimZa_RJm3iDj70_DvjW-36" value="&lt;span style=&quot;&quot;&gt;h_suppliers_rk: bigint&lt;br&gt;&lt;div&gt;companyName: nvarchar(40)&lt;/div&gt;&lt;div&gt;contactName: nvarchar(30)&lt;/div&gt;&lt;div&gt;contactTitle: nvarchar(30)&lt;/div&gt;&lt;div&gt;adress: nvarchar(60)&lt;/div&gt;&lt;div&gt;city: nvarchar(15)&lt;/div&gt;&lt;div&gt;region: nvarchar(15)&lt;/div&gt;&lt;div&gt;postalCode: nvarchar(10)&lt;/div&gt;&lt;div&gt;country: nvarchar(15)&lt;/div&gt;&lt;div&gt;phone: nvarchar(24)&lt;/div&gt;&lt;div&gt;fax: nvarchar(24)&lt;/div&gt;&lt;div&gt;homePage: ntext&lt;/div&gt;&lt;div&gt;valid_from_dttm: datetime&lt;/div&gt;&lt;div&gt;valid_to_dttm: datetime&lt;/div&gt;&lt;div&gt;source_system: string&lt;/div&gt;&lt;div&gt;processed_dttm: datetime&lt;/div&gt;&lt;/span&gt;" style="text;html=1;align=left;verticalAlign=middle;resizable=0;points=[];autosize=1;strokeColor=none;" vertex="1" parent="XimZa_RJm3iDj70_DvjW-35">
          <mxGeometry y="24" width="168" height="234" as="geometry" />
        </mxCell>
        <mxCell id="XimZa_RJm3iDj70_DvjW-37" value="s_orders" style="swimlane;align=center;startSize=23;fillColor=#fff2cc;strokeColor=#d6b656;" vertex="1" parent="1">
          <mxGeometry x="-282" y="720" width="174" height="222" as="geometry" />
        </mxCell>
        <mxCell id="XimZa_RJm3iDj70_DvjW-38" value="&lt;span style=&quot;&quot;&gt;h_orders_rk: bigint&lt;br&gt;&lt;div&gt;orderData: datetime&lt;/div&gt;&lt;div&gt;requiredData: datetime&lt;/div&gt;&lt;div&gt;shipVia: int&lt;/div&gt;&lt;div&gt;freight: money&lt;/div&gt;&lt;div&gt;shipName: nvarchar(40)&lt;/div&gt;&lt;div&gt;shipAdress: nvarchar(60)&lt;/div&gt;&lt;div&gt;shipCity: nvarchar(15)&lt;/div&gt;&lt;div&gt;shipPostalCode: nvarchar(10)&lt;/div&gt;&lt;div&gt;shipCountry: nvarchar(15)&lt;/div&gt;&lt;div&gt;valid_from_dttm: datetime&lt;/div&gt;&lt;div&gt;valid_to_dttm: datetime&lt;/div&gt;&lt;div&gt;source_system: string&lt;/div&gt;&lt;div&gt;processed_dttm: datetime&lt;/div&gt;&lt;/span&gt;" style="text;html=1;align=left;verticalAlign=middle;resizable=0;points=[];autosize=1;strokeColor=none;" vertex="1" parent="XimZa_RJm3iDj70_DvjW-37">
          <mxGeometry y="21" width="174" height="204" as="geometry" />
        </mxCell>
        <mxCell id="XimZa_RJm3iDj70_DvjW-39" value="s_customers" style="swimlane;align=center;fillColor=#fff2cc;strokeColor=#d6b656;" vertex="1" parent="1">
          <mxGeometry x="-84" y="828" width="168" height="246" as="geometry" />
        </mxCell>
        <mxCell id="XimZa_RJm3iDj70_DvjW-41" value="&lt;span style=&quot;&quot;&gt;h_customers_rk: bigint&lt;br&gt;&lt;div&gt;companyName: nvarchar(40)&lt;/div&gt;&lt;div&gt;contactName: nvarchar(30)&lt;/div&gt;&lt;div&gt;contactTitle: nvarchar(30)&lt;/div&gt;&lt;div&gt;adress: nvarchar(60)&lt;/div&gt;&lt;div&gt;city: nvarchar(15)&lt;/div&gt;&lt;div&gt;region: nvarchar(15)&lt;/div&gt;&lt;div&gt;postalCode: nvarchar(10)&lt;/div&gt;&lt;div&gt;country: nvarchar(15)&lt;/div&gt;&lt;div&gt;phone: nvarchar(24)&lt;/div&gt;&lt;div&gt;fax: nvarchar(24)&lt;/div&gt;&lt;div&gt;valid_from_dttm: datetime&lt;/div&gt;&lt;div&gt;valid_to_dttm: datetime&lt;/div&gt;&lt;div&gt;source_system: string&lt;/div&gt;&lt;div&gt;processed_dttm: datetime&lt;/div&gt;&lt;/span&gt;" style="text;html=1;align=left;verticalAlign=middle;resizable=0;points=[];autosize=1;strokeColor=none;" vertex="1" parent="XimZa_RJm3iDj70_DvjW-39">
          <mxGeometry y="24" width="168" height="222" as="geometry" />
        </mxCell>
        <mxCell id="XimZa_RJm3iDj70_DvjW-42" value="s_employees" style="swimlane;align=center;fillColor=#fff2cc;strokeColor=#d6b656;" vertex="1" parent="1">
          <mxGeometry x="-297" y="324" width="168" height="336" as="geometry" />
        </mxCell>
        <mxCell id="XimZa_RJm3iDj70_DvjW-43" value="&lt;span style=&quot;&quot;&gt;h_employees_rk: bigint&lt;br&gt;&lt;div&gt;lastName: nvarchar(20)&lt;/div&gt;&lt;div&gt;firstName: nvarchar(15)&lt;/div&gt;&lt;div&gt;title: nvarchar(30)&lt;/div&gt;&lt;div&gt;titleOfCoutesy: nvarchar(25)&lt;/div&gt;&lt;div&gt;birthDate: datetime&amp;nbsp;&lt;/div&gt;&lt;div&gt;hireDate: datetime&lt;/div&gt;&lt;div&gt;address: nvarchar(60)&lt;/div&gt;&lt;div&gt;city: nvarchar(15)&lt;/div&gt;&lt;div&gt;region: nvarchar(15)&lt;/div&gt;&lt;div&gt;postalCode: nvarchar(10)&lt;/div&gt;&lt;div&gt;country: nvarchar(15)&lt;/div&gt;&lt;div&gt;homePhone: nvarchar(24)&lt;/div&gt;&lt;div&gt;extention: nvarchar(4)&lt;/div&gt;&lt;div&gt;photo: image&amp;nbsp;&lt;/div&gt;&lt;div&gt;notes: ntext&amp;nbsp;&lt;/div&gt;&lt;div&gt;reportSTO: int&amp;nbsp;&lt;/div&gt;&lt;div&gt;photoPath: nvarchar(255)&lt;/div&gt;&lt;div&gt;valid_from_dttm: datetime&lt;/div&gt;&lt;div&gt;valid_to_dttm: datetime&lt;/div&gt;&lt;div&gt;source_system: string&lt;/div&gt;&lt;div&gt;processed_dttm: datetime&lt;/div&gt;&lt;/span&gt;" style="text;html=1;align=left;verticalAlign=middle;resizable=0;points=[];autosize=1;strokeColor=none;" vertex="1" parent="XimZa_RJm3iDj70_DvjW-42">
          <mxGeometry y="19" width="168" height="318" as="geometry" />
        </mxCell>
        <mxCell id="XimZa_RJm3iDj70_DvjW-44" value="s_shippers" style="swimlane;align=center;fillColor=#fff2cc;strokeColor=#d6b656;" vertex="1" parent="1">
          <mxGeometry x="-96" y="576" width="168" height="132" as="geometry" />
        </mxCell>
        <mxCell id="XimZa_RJm3iDj70_DvjW-45" value="&lt;span style=&quot;&quot;&gt;h_shippers_rk: bigint&lt;br&gt;&lt;div&gt;companyName: nvarchar(40)&lt;/div&gt;&lt;div&gt;phone: nvarchar(24)&lt;/div&gt;&lt;div&gt;valid_from_dttm: datetime&lt;/div&gt;&lt;div&gt;valid_to_dttm: datetime&lt;/div&gt;&lt;div&gt;source_system: string&lt;/div&gt;&lt;div&gt;processed_dttm: datetime&lt;/div&gt;&lt;/span&gt;" style="text;html=1;align=left;verticalAlign=middle;resizable=0;points=[];autosize=1;strokeColor=none;" vertex="1" parent="XimZa_RJm3iDj70_DvjW-44">
          <mxGeometry y="24" width="168" height="108" as="geometry" />
        </mxCell>
        <mxCell id="XimZa_RJm3iDj70_DvjW-46" value="s_territories" style="swimlane;align=center;fillColor=#fff2cc;strokeColor=#d6b656;" vertex="1" parent="1">
          <mxGeometry x="-300" y="1055.5" width="192" height="132" as="geometry" />
        </mxCell>
        <mxCell id="XimZa_RJm3iDj70_DvjW-48" value="&lt;span style=&quot;&quot;&gt;h_territories_rk: bigint&lt;br&gt;&lt;/span&gt;&lt;div style=&quot;&quot;&gt;rerritoryDescription: nvarchar(15)&lt;/div&gt;&lt;div style=&quot;&quot;&gt;regionID: int&amp;nbsp;&lt;/div&gt;&lt;div style=&quot;&quot;&gt;valid_from_dttm: datetime&lt;/div&gt;&lt;div style=&quot;&quot;&gt;valid_to_dttm: datetime&lt;/div&gt;&lt;div style=&quot;&quot;&gt;source_system: string&lt;/div&gt;&lt;div style=&quot;&quot;&gt;processed_dttm: datetime&lt;/div&gt;" style="text;html=1;align=left;verticalAlign=middle;resizable=0;points=[];autosize=1;strokeColor=none;" vertex="1" parent="XimZa_RJm3iDj70_DvjW-46">
          <mxGeometry y="24" width="192" height="108" as="geometry" />
        </mxCell>
        <mxCell id="XimZa_RJm3iDj70_DvjW-49" value="s_customerdemo" style="swimlane;align=center;fillColor=#fff2cc;strokeColor=#d6b656;" vertex="1" parent="1">
          <mxGeometry x="-84" y="1169" width="162" height="120" as="geometry" />
        </mxCell>
        <mxCell id="XimZa_RJm3iDj70_DvjW-50" value="&lt;span style=&quot;&quot;&gt;h_customerdemo_rk: bigint&lt;br&gt;&lt;div&gt;customerDesc: ntext&lt;/div&gt;&lt;div&gt;valid_from_dttm: datetime&lt;/div&gt;&lt;div&gt;valid_to_dttm: datetime&lt;/div&gt;&lt;div&gt;source_system: string&lt;/div&gt;&lt;div&gt;processed_dttm: datetime&lt;/div&gt;&lt;/span&gt;" style="text;html=1;align=left;verticalAlign=middle;resizable=0;points=[];autosize=1;strokeColor=none;" vertex="1" parent="XimZa_RJm3iDj70_DvjW-49">
          <mxGeometry y="24" width="162" height="96" as="geometry" />
        </mxCell>
        <mxCell id="XimZa_RJm3iDj70_DvjW-51" value="s_region" style="swimlane;align=center;fillColor=#fff2cc;strokeColor=#d6b656;" vertex="1" parent="1">
          <mxGeometry x="-276" y="1272" width="156" height="120" as="geometry" />
        </mxCell>
        <mxCell id="XimZa_RJm3iDj70_DvjW-52" value="&lt;span style=&quot;&quot;&gt;h_region_rk: bigint&lt;br&gt;&lt;/span&gt;&lt;div style=&quot;&quot;&gt;regionDesc: ntext&lt;/div&gt;&lt;div style=&quot;&quot;&gt;valid_from_dttm: datetime&lt;/div&gt;&lt;div style=&quot;&quot;&gt;valid_to_dttm: datetime&lt;/div&gt;&lt;div style=&quot;&quot;&gt;source_system: string&lt;/div&gt;&lt;div style=&quot;&quot;&gt;processed_dttm: datetime&lt;/div&gt;&lt;span style=&quot;&quot;&gt;&lt;br&gt;&lt;/span&gt;" style="text;html=1;align=left;verticalAlign=middle;resizable=0;points=[];autosize=1;strokeColor=none;" vertex="1" parent="XimZa_RJm3iDj70_DvjW-51">
          <mxGeometry y="24" width="156" height="108" as="geometry" />
        </mxCell>
        <mxCell id="XimZa_RJm3iDj70_DvjW-59" value="" style="endArrow=none;html=1;" edge="1" parent="1" target="XimZa_RJm3iDj70_DvjW-20">
          <mxGeometry width="50" height="50" relative="1" as="geometry">
            <mxPoint x="66" y="104" as="sourcePoint" />
            <mxPoint x="138" y="90" as="targetPoint" />
          </mxGeometry>
        </mxCell>
        <mxCell id="XimZa_RJm3iDj70_DvjW-63" value="" style="endArrow=none;html=1;" edge="1" parent="1" source="XimZa_RJm3iDj70_DvjW-34" target="XimZa_RJm3iDj70_DvjW-21">
          <mxGeometry width="50" height="50" relative="1" as="geometry">
            <mxPoint x="66" y="284" as="sourcePoint" />
            <mxPoint x="116" y="234" as="targetPoint" />
          </mxGeometry>
        </mxCell>
        <mxCell id="XimZa_RJm3iDj70_DvjW-64" style="edgeStyle=none;rounded=0;orthogonalLoop=1;jettySize=auto;html=1;exitX=0.75;exitY=0;exitDx=0;exitDy=0;" edge="1" parent="1" source="XimZa_RJm3iDj70_DvjW-15" target="XimZa_RJm3iDj70_DvjW-15">
          <mxGeometry relative="1" as="geometry" />
        </mxCell>
        <mxCell id="XimZa_RJm3iDj70_DvjW-65" value="" style="endArrow=none;html=1;" edge="1" parent="1" source="XimZa_RJm3iDj70_DvjW-36" target="XimZa_RJm3iDj70_DvjW-22">
          <mxGeometry width="50" height="50" relative="1" as="geometry">
            <mxPoint x="66" y="489" as="sourcePoint" />
            <mxPoint x="116" y="439" as="targetPoint" />
          </mxGeometry>
        </mxCell>
        <mxCell id="XimZa_RJm3iDj70_DvjW-66" value="" style="endArrow=none;html=1;entryX=0.006;entryY=0.53;entryDx=0;entryDy=0;entryPerimeter=0;" edge="1" parent="1" source="XimZa_RJm3iDj70_DvjW-43" target="XimZa_RJm3iDj70_DvjW-25">
          <mxGeometry width="50" height="50" relative="1" as="geometry">
            <mxPoint x="60" y="764" as="sourcePoint" />
            <mxPoint x="110" y="714" as="targetPoint" />
          </mxGeometry>
        </mxCell>
        <mxCell id="XimZa_RJm3iDj70_DvjW-67" value="" style="endArrow=none;html=1;entryX=-0.019;entryY=0.652;entryDx=0;entryDy=0;entryPerimeter=0;exitX=1.006;exitY=0.769;exitDx=0;exitDy=0;exitPerimeter=0;" edge="1" parent="1" source="XimZa_RJm3iDj70_DvjW-45" target="XimZa_RJm3iDj70_DvjW-26">
          <mxGeometry width="50" height="50" relative="1" as="geometry">
            <mxPoint x="66" y="1076" as="sourcePoint" />
            <mxPoint x="116" y="1026" as="targetPoint" />
          </mxGeometry>
        </mxCell>
        <mxCell id="XimZa_RJm3iDj70_DvjW-68" value="" style="endArrow=none;html=1;entryX=-0.011;entryY=0.49;entryDx=0;entryDy=0;entryPerimeter=0;exitX=1.013;exitY=0.134;exitDx=0;exitDy=0;exitPerimeter=0;" edge="1" parent="1" source="XimZa_RJm3iDj70_DvjW-38" target="XimZa_RJm3iDj70_DvjW-23">
          <mxGeometry width="50" height="50" relative="1" as="geometry">
            <mxPoint x="72" y="1290" as="sourcePoint" />
            <mxPoint x="122" y="1240" as="targetPoint" />
          </mxGeometry>
        </mxCell>
        <mxCell id="XimZa_RJm3iDj70_DvjW-69" value="" style="endArrow=none;html=1;entryX=0;entryY=0.545;entryDx=0;entryDy=0;entryPerimeter=0;exitX=0.998;exitY=0.65;exitDx=0;exitDy=0;exitPerimeter=0;" edge="1" parent="1" source="XimZa_RJm3iDj70_DvjW-41" target="XimZa_RJm3iDj70_DvjW-24">
          <mxGeometry width="50" height="50" relative="1" as="geometry">
            <mxPoint x="66" y="1520" as="sourcePoint" />
            <mxPoint x="116" y="1470" as="targetPoint" />
          </mxGeometry>
        </mxCell>
        <mxCell id="XimZa_RJm3iDj70_DvjW-70" value="" style="endArrow=none;html=1;exitX=0.998;exitY=0.201;exitDx=0;exitDy=0;exitPerimeter=0;" edge="1" parent="1" source="XimZa_RJm3iDj70_DvjW-48" target="XimZa_RJm3iDj70_DvjW-27">
          <mxGeometry width="50" height="50" relative="1" as="geometry">
            <mxPoint x="84" y="1766" as="sourcePoint" />
            <mxPoint x="134" y="1716" as="targetPoint" />
          </mxGeometry>
        </mxCell>
        <mxCell id="XimZa_RJm3iDj70_DvjW-71" value="" style="endArrow=none;html=1;entryX=-0.012;entryY=0.258;entryDx=0;entryDy=0;entryPerimeter=0;" edge="1" parent="1" source="XimZa_RJm3iDj70_DvjW-50" target="XimZa_RJm3iDj70_DvjW-30">
          <mxGeometry width="50" height="50" relative="1" as="geometry">
            <mxPoint x="54" y="1933" as="sourcePoint" />
            <mxPoint x="104" y="1883" as="targetPoint" />
          </mxGeometry>
        </mxCell>
        <mxCell id="XimZa_RJm3iDj70_DvjW-72" value="" style="endArrow=none;html=1;entryX=-0.026;entryY=0.444;entryDx=0;entryDy=0;entryPerimeter=0;" edge="1" parent="1" source="XimZa_RJm3iDj70_DvjW-52" target="XimZa_RJm3iDj70_DvjW-28">
          <mxGeometry width="50" height="50" relative="1" as="geometry">
            <mxPoint x="48" y="2077" as="sourcePoint" />
            <mxPoint x="98" y="2027" as="targetPoint" />
          </mxGeometry>
        </mxCell>
        <mxCell id="XimZa_RJm3iDj70_DvjW-73" value="l_prod_supp_category" style="swimlane;align=center;fillColor=#dae8fc;strokeColor=#6c8ebf;" vertex="1" parent="1">
          <mxGeometry x="456" y="120" width="180" height="108" as="geometry" />
        </mxCell>
        <mxCell id="XimZa_RJm3iDj70_DvjW-74" value="&lt;span style=&quot;&quot;&gt;l_prod_supp_category_rk: bigint&lt;br&gt;&lt;/span&gt;&lt;span style=&quot;&quot;&gt;h_categories_rk: bidint&lt;br&gt;&lt;/span&gt;&lt;span style=&quot;&quot;&gt;h_products_rk: bigint&lt;/span&gt;&lt;br style=&quot;&quot;&gt;&lt;span style=&quot;&quot;&gt;source_system: string&lt;/span&gt;&lt;br style=&quot;&quot;&gt;&lt;div style=&quot;&quot;&gt;&lt;span&gt;processed_dttm: datetime&lt;/span&gt;&lt;/div&gt;" style="text;html=1;align=left;verticalAlign=middle;resizable=0;points=[];autosize=1;strokeColor=none;" vertex="1" parent="XimZa_RJm3iDj70_DvjW-73">
          <mxGeometry y="24" width="186" height="78" as="geometry" />
        </mxCell>
        <mxCell id="XimZa_RJm3iDj70_DvjW-75" value="" style="endArrow=none;html=1;exitX=1;exitY=0;exitDx=0;exitDy=0;entryX=0.013;entryY=1.03;entryDx=0;entryDy=0;entryPerimeter=0;" edge="1" parent="1" source="XimZa_RJm3iDj70_DvjW-6" target="XimZa_RJm3iDj70_DvjW-74">
          <mxGeometry width="50" height="50" relative="1" as="geometry">
            <mxPoint x="322" y="248" as="sourcePoint" />
            <mxPoint x="372" y="198" as="targetPoint" />
          </mxGeometry>
        </mxCell>
        <mxCell id="XimZa_RJm3iDj70_DvjW-76" value="" style="endArrow=none;html=1;exitX=1;exitY=0.25;exitDx=0;exitDy=0;" edge="1" parent="1" source="XimZa_RJm3iDj70_DvjW-12" target="XimZa_RJm3iDj70_DvjW-74">
          <mxGeometry width="50" height="50" relative="1" as="geometry">
            <mxPoint x="322" y="218" as="sourcePoint" />
            <mxPoint x="372" y="168" as="targetPoint" />
          </mxGeometry>
        </mxCell>
        <mxCell id="XimZa_RJm3iDj70_DvjW-78" value="" style="endArrow=none;html=1;" edge="1" parent="1" source="XimZa_RJm3iDj70_DvjW-2" target="XimZa_RJm3iDj70_DvjW-73">
          <mxGeometry width="50" height="50" relative="1" as="geometry">
            <mxPoint x="322" y="191" as="sourcePoint" />
            <mxPoint x="372" y="141" as="targetPoint" />
          </mxGeometry>
        </mxCell>
        <mxCell id="XimZa_RJm3iDj70_DvjW-79" value="l_order_details" style="swimlane;align=center;fillColor=#dae8fc;strokeColor=#6c8ebf;" vertex="1" parent="1">
          <mxGeometry x="456" y="336" width="154" height="108" as="geometry" />
        </mxCell>
        <mxCell id="XimZa_RJm3iDj70_DvjW-80" value="&lt;span&gt;l_order_details&lt;/span&gt;_rk: bigint&lt;br&gt;&lt;span&gt;h_orders_rk: bigint&lt;br&gt;&lt;/span&gt;&lt;span&gt;h_products_rk: bigint&lt;br&gt;&lt;/span&gt;&lt;span&gt;source_system: string&lt;/span&gt;&lt;br&gt;&lt;div&gt;processed_dttm: datetime&lt;/div&gt;" style="text;html=1;align=left;verticalAlign=middle;resizable=0;points=[];autosize=1;strokeColor=none;fontStyle=0" vertex="1" parent="XimZa_RJm3iDj70_DvjW-79">
          <mxGeometry y="24" width="156" height="78" as="geometry" />
        </mxCell>
        <mxCell id="XimZa_RJm3iDj70_DvjW-81" value="" style="endArrow=none;html=1;entryX=-0.002;entryY=0.333;entryDx=0;entryDy=0;entryPerimeter=0;" edge="1" parent="1" source="XimZa_RJm3iDj70_DvjW-21" target="XimZa_RJm3iDj70_DvjW-80">
          <mxGeometry width="50" height="50" relative="1" as="geometry">
            <mxPoint x="289" y="302" as="sourcePoint" />
            <mxPoint x="339" y="252" as="targetPoint" />
          </mxGeometry>
        </mxCell>
        <mxCell id="XimZa_RJm3iDj70_DvjW-82" value="" style="endArrow=none;html=1;exitX=1;exitY=0;exitDx=0;exitDy=0;entryX=0;entryY=1;entryDx=0;entryDy=0;" edge="1" parent="1" source="XimZa_RJm3iDj70_DvjW-14" target="XimZa_RJm3iDj70_DvjW-79">
          <mxGeometry width="50" height="50" relative="1" as="geometry">
            <mxPoint x="322" y="632" as="sourcePoint" />
            <mxPoint x="372" y="582" as="targetPoint" />
          </mxGeometry>
        </mxCell>
        <mxCell id="XimZa_RJm3iDj70_DvjW-84" value="s_l_order_details" style="swimlane;align=center;fillColor=#d5e8d4;strokeColor=#82b366;" vertex="1" parent="1">
          <mxGeometry x="684" y="276" width="150" height="144" as="geometry" />
        </mxCell>
        <mxCell id="XimZa_RJm3iDj70_DvjW-85" value="&lt;span&gt;l_order_details&lt;/span&gt;&lt;span&gt;_rk: bigint&lt;br&gt;&lt;/span&gt;unitprice: money&lt;br&gt;quantity: smallint&lt;br&gt;discount: real&lt;br&gt;&lt;div&gt;valid_from_dttm: datetime&lt;/div&gt;&lt;div&gt;valid_to_dttm: datetime&lt;/div&gt;&lt;div&gt;source_system: string&lt;/div&gt;&lt;div&gt;processed_dttm: datetime&lt;/div&gt;" style="text;html=1;align=left;verticalAlign=middle;resizable=0;points=[];autosize=1;strokeColor=none;" vertex="1" parent="XimZa_RJm3iDj70_DvjW-84">
          <mxGeometry x="2" y="24" width="156" height="120" as="geometry" />
        </mxCell>
        <mxCell id="XimZa_RJm3iDj70_DvjW-86" value="" style="endArrow=none;html=1;exitX=1.002;exitY=0.004;exitDx=0;exitDy=0;exitPerimeter=0;" edge="1" parent="1" source="XimZa_RJm3iDj70_DvjW-80" target="XimZa_RJm3iDj70_DvjW-85">
          <mxGeometry width="50" height="50" relative="1" as="geometry">
            <mxPoint x="616" y="530" as="sourcePoint" />
            <mxPoint x="666" y="480" as="targetPoint" />
          </mxGeometry>
        </mxCell>
        <mxCell id="XimZa_RJm3iDj70_DvjW-88" value="l_ord_cust_emp_ship" style="swimlane;align=center;startSize=23;fillColor=#dae8fc;strokeColor=#6c8ebf;" vertex="1" parent="1">
          <mxGeometry x="492" y="519" width="179" height="132" as="geometry" />
        </mxCell>
        <mxCell id="XimZa_RJm3iDj70_DvjW-89" value="&lt;span style=&quot;&quot;&gt;l_ord_cust_emp_ship_rk: bigint&lt;br&gt;&lt;/span&gt;&lt;span style=&quot;&quot;&gt;h_customers_rk: bigint&lt;br&gt;&lt;/span&gt;&lt;span style=&quot;&quot;&gt;h_orders_rk: bigint&lt;br&gt;&lt;/span&gt;&lt;span style=&quot;&quot;&gt;h_employees_rk: bigint&lt;br&gt;&lt;/span&gt;&lt;span style=&quot;&quot;&gt;h_shippers_rk: bigint&lt;br&gt;&lt;/span&gt;&lt;span style=&quot;&quot;&gt;source_system: string&lt;/span&gt;&lt;br style=&quot;&quot;&gt;&lt;div style=&quot;&quot;&gt;processed_dttm: datetime&lt;/div&gt;" style="text;html=1;align=left;verticalAlign=middle;resizable=0;points=[];autosize=1;strokeColor=none;fontStyle=0" vertex="1" parent="XimZa_RJm3iDj70_DvjW-88">
          <mxGeometry x="2" y="24" width="180" height="108" as="geometry" />
        </mxCell>
        <mxCell id="XimZa_RJm3iDj70_DvjW-90" value="" style="endArrow=none;html=1;exitX=1;exitY=0;exitDx=0;exitDy=0;entryX=0.006;entryY=0.324;entryDx=0;entryDy=0;entryPerimeter=0;" edge="1" parent="1" source="XimZa_RJm3iDj70_DvjW-11" target="XimZa_RJm3iDj70_DvjW-89">
          <mxGeometry width="50" height="50" relative="1" as="geometry">
            <mxPoint x="430" y="818" as="sourcePoint" />
            <mxPoint x="480" y="768" as="targetPoint" />
          </mxGeometry>
        </mxCell>
        <mxCell id="XimZa_RJm3iDj70_DvjW-91" value="" style="endArrow=none;html=1;entryX=-0.006;entryY=0.62;entryDx=0;entryDy=0;entryPerimeter=0;" edge="1" parent="1" source="XimZa_RJm3iDj70_DvjW-26" target="XimZa_RJm3iDj70_DvjW-89">
          <mxGeometry width="50" height="50" relative="1" as="geometry">
            <mxPoint x="288" y="1000" as="sourcePoint" />
            <mxPoint x="332" y="936" as="targetPoint" />
          </mxGeometry>
        </mxCell>
        <mxCell id="XimZa_RJm3iDj70_DvjW-92" value="" style="endArrow=none;html=1;entryX=-0.013;entryY=0.88;entryDx=0;entryDy=0;entryPerimeter=0;exitX=1.032;exitY=0.187;exitDx=0;exitDy=0;exitPerimeter=0;" edge="1" parent="1" source="XimZa_RJm3iDj70_DvjW-23" target="XimZa_RJm3iDj70_DvjW-89">
          <mxGeometry width="50" height="50" relative="1" as="geometry">
            <mxPoint x="288" y="1169" as="sourcePoint" />
            <mxPoint x="338" y="1119" as="targetPoint" />
          </mxGeometry>
        </mxCell>
        <mxCell id="XimZa_RJm3iDj70_DvjW-93" value="" style="endArrow=none;html=1;entryX=0.05;entryY=1.003;entryDx=0;entryDy=0;entryPerimeter=0;exitX=0.998;exitY=0.025;exitDx=0;exitDy=0;exitPerimeter=0;" edge="1" parent="1" source="XimZa_RJm3iDj70_DvjW-24" target="XimZa_RJm3iDj70_DvjW-89">
          <mxGeometry width="50" height="50" relative="1" as="geometry">
            <mxPoint x="438" y="902" as="sourcePoint" />
            <mxPoint x="488" y="852" as="targetPoint" />
          </mxGeometry>
        </mxCell>
        <mxCell id="XimZa_RJm3iDj70_DvjW-94" value="l_employee_territories" style="swimlane;align=center;fillColor=#dae8fc;strokeColor=#6c8ebf;" vertex="1" parent="1">
          <mxGeometry x="456" y="792" width="188" height="98" as="geometry" />
        </mxCell>
        <mxCell id="XimZa_RJm3iDj70_DvjW-96" value="&lt;span&gt;l_employee_territories_rk: bigint&lt;br&gt;&lt;/span&gt;&lt;span&gt;h_employees_rk: bigint&lt;/span&gt;&lt;br&gt;&lt;span&gt;h_territories_rk: bigint&lt;/span&gt;&lt;br&gt;&lt;span&gt;source_system: string&lt;/span&gt;&lt;br&gt;&lt;span&gt;processed_dttm: datetime&lt;/span&gt;&lt;span&gt;&lt;br&gt;&lt;/span&gt;" style="text;html=1;align=left;verticalAlign=middle;resizable=0;points=[];autosize=1;strokeColor=none;fontStyle=0" vertex="1" parent="XimZa_RJm3iDj70_DvjW-94">
          <mxGeometry x="2" y="20" width="186" height="78" as="geometry" />
        </mxCell>
        <mxCell id="XimZa_RJm3iDj70_DvjW-97" value="" style="endArrow=none;html=1;entryX=0;entryY=0.5;entryDx=0;entryDy=0;exitX=0.921;exitY=1.025;exitDx=0;exitDy=0;exitPerimeter=0;" edge="1" parent="1" source="XimZa_RJm3iDj70_DvjW-25" target="XimZa_RJm3iDj70_DvjW-94">
          <mxGeometry width="50" height="50" relative="1" as="geometry">
            <mxPoint x="289" y="752" as="sourcePoint" />
            <mxPoint x="339" y="702" as="targetPoint" />
          </mxGeometry>
        </mxCell>
        <mxCell id="XimZa_RJm3iDj70_DvjW-98" value="" style="endArrow=none;html=1;exitX=1;exitY=0;exitDx=0;exitDy=0;entryX=-0.023;entryY=0.987;entryDx=0;entryDy=0;entryPerimeter=0;" edge="1" parent="1" source="XimZa_RJm3iDj70_DvjW-16" target="XimZa_RJm3iDj70_DvjW-96">
          <mxGeometry width="50" height="50" relative="1" as="geometry">
            <mxPoint x="306" y="1566" as="sourcePoint" />
            <mxPoint x="504" y="1336" as="targetPoint" />
          </mxGeometry>
        </mxCell>
        <mxCell id="XimZa_RJm3iDj70_DvjW-99" style="edgeStyle=none;rounded=0;orthogonalLoop=1;jettySize=auto;html=1;exitX=0.5;exitY=0;exitDx=0;exitDy=0;" edge="1" parent="1" source="XimZa_RJm3iDj70_DvjW-94" target="XimZa_RJm3iDj70_DvjW-94">
          <mxGeometry relative="1" as="geometry" />
        </mxCell>
        <mxCell id="XimZa_RJm3iDj70_DvjW-100" value="l_customercustomerdemo" style="swimlane;align=center;fillColor=#dae8fc;strokeColor=#6c8ebf;" vertex="1" parent="1">
          <mxGeometry x="456" y="1008" width="204" height="108" as="geometry" />
        </mxCell>
        <mxCell id="XimZa_RJm3iDj70_DvjW-101" value="&lt;span style=&quot;&quot;&gt;l_customercustomerdemo_rk: bigint&lt;br&gt;&lt;/span&gt;&lt;span style=&quot;&quot;&gt;h_customerdemo_rk: bigint&lt;/span&gt;&lt;br style=&quot;&quot;&gt;&lt;span style=&quot;&quot;&gt;h_customers_rk: bigint&lt;/span&gt;&lt;br style=&quot;&quot;&gt;&lt;span style=&quot;&quot;&gt;source_system: string&lt;/span&gt;&lt;br style=&quot;&quot;&gt;&lt;span style=&quot;&quot;&gt;processed_dttm: datetime&lt;/span&gt;&lt;span style=&quot;&quot;&gt;&lt;br&gt;&lt;/span&gt;" style="text;html=1;align=left;verticalAlign=middle;resizable=0;points=[];autosize=1;strokeColor=none;fontStyle=0" vertex="1" parent="XimZa_RJm3iDj70_DvjW-100">
          <mxGeometry y="24" width="204" height="78" as="geometry" />
        </mxCell>
        <mxCell id="XimZa_RJm3iDj70_DvjW-102" value="" style="endArrow=none;html=1;exitX=0.005;exitY=0.17;exitDx=0;exitDy=0;exitPerimeter=0;" edge="1" parent="1" source="XimZa_RJm3iDj70_DvjW-100" target="XimZa_RJm3iDj70_DvjW-24">
          <mxGeometry width="50" height="50" relative="1" as="geometry">
            <mxPoint x="330" y="1568" as="sourcePoint" />
            <mxPoint x="380" y="1518" as="targetPoint" />
          </mxGeometry>
        </mxCell>
        <mxCell id="XimZa_RJm3iDj70_DvjW-103" value="" style="endArrow=none;html=1;entryX=0;entryY=1;entryDx=0;entryDy=0;exitX=1;exitY=0;exitDx=0;exitDy=0;" edge="1" parent="1" source="XimZa_RJm3iDj70_DvjW-18" target="XimZa_RJm3iDj70_DvjW-100">
          <mxGeometry width="50" height="50" relative="1" as="geometry">
            <mxPoint x="330" y="1568" as="sourcePoint" />
            <mxPoint x="380" y="1518" as="targetPoint" />
          </mxGeometry>
        </mxCell>
        <mxCell id="XimZa_RJm3iDj70_DvjW-104" value="l_territories_region" style="swimlane;align=center;fillColor=#dae8fc;strokeColor=#6c8ebf;" vertex="1" parent="1">
          <mxGeometry x="477" y="1248" width="158" height="102" as="geometry" />
        </mxCell>
        <mxCell id="XimZa_RJm3iDj70_DvjW-106" value="" style="endArrow=none;html=1;entryX=0;entryY=0.25;entryDx=0;entryDy=0;exitX=0.81;exitY=1.03;exitDx=0;exitDy=0;exitPerimeter=0;" edge="1" parent="1" source="XimZa_RJm3iDj70_DvjW-27" target="XimZa_RJm3iDj70_DvjW-104">
          <mxGeometry width="50" height="50" relative="1" as="geometry">
            <mxPoint x="330" y="1676" as="sourcePoint" />
            <mxPoint x="380" y="1626" as="targetPoint" />
          </mxGeometry>
        </mxCell>
        <mxCell id="XimZa_RJm3iDj70_DvjW-107" value="" style="endArrow=none;html=1;exitX=0.923;exitY=-0.04;exitDx=0;exitDy=0;exitPerimeter=0;entryX=-0.008;entryY=0.78;entryDx=0;entryDy=0;entryPerimeter=0;" edge="1" parent="1" source="XimZa_RJm3iDj70_DvjW-28" target="XimZa_RJm3iDj70_DvjW-105">
          <mxGeometry width="50" height="50" relative="1" as="geometry">
            <mxPoint x="330" y="1676" as="sourcePoint" />
            <mxPoint x="380" y="1626" as="targetPoint" />
          </mxGeometry>
        </mxCell>
        <mxCell id="XimZa_RJm3iDj70_DvjW-105" value="&lt;span style=&quot;&quot;&gt;l_territories_region_rk: bigint&lt;br&gt;&lt;/span&gt;&lt;span style=&quot;&quot;&gt;h_territories_rk: bigint&lt;br&gt;&lt;/span&gt;&lt;span style=&quot;&quot;&gt;h_region_rk: bigint&lt;br&gt;&lt;/span&gt;&lt;span style=&quot;&quot;&gt;source_system: string&lt;/span&gt;&lt;br style=&quot;&quot;&gt;&lt;span style=&quot;&quot;&gt;processed_dttm: datetime&lt;/span&gt;&lt;span style=&quot;&quot;&gt;&lt;br&gt;&lt;/span&gt;" style="text;html=1;align=left;verticalAlign=middle;resizable=0;points=[];autosize=1;fontStyle=0" vertex="1" parent="1">
          <mxGeometry x="480" y="1272" width="168" height="78" as="geometry" />
        </mxCell>
        <mxCell id="XimZa_RJm3iDj70_DvjW-30" value="h_customerdemo_rk: bigint&lt;br&gt;customerTypeID: bigint&lt;br&gt;&lt;span style=&quot;&quot;&gt;source_system: string&lt;/span&gt;&lt;br style=&quot;&quot;&gt;&lt;span style=&quot;&quot;&gt;processed_dttm: datetime&lt;/span&gt;" style="text;html=1;align=left;verticalAlign=middle;resizable=0;points=[];autosize=1;strokeColor=none;" vertex="1" parent="1">
          <mxGeometry x="168" y="1230" width="162" height="66" as="geometry" />
        </mxCell>
        <mxCell id="XimZa_RJm3iDj70_DvjW-28" value="h_region_rk: bigint&lt;br&gt;regionID: bigint&lt;br&gt;&lt;span style=&quot;&quot;&gt;source_system: string&lt;/span&gt;&lt;br style=&quot;&quot;&gt;&lt;span style=&quot;&quot;&gt;processed_dttm: datetime&lt;/span&gt;" style="text;html=1;align=left;verticalAlign=middle;resizable=0;points=[];autosize=1;strokeColor=none;" vertex="1" parent="1">
          <mxGeometry x="126" y="1380" width="156" height="66" as="geometry" />
        </mxCell>
      </root>
    </mxGraphModel>
  </diagram>
</mxfile>
